<svg width="312" height="186" viewBox="0 0 312 186" version="1.1" xmlns="http://www.w3.org/2000/svg" xmlns:xlink="http://www.w3.org/1999/xlink">
<title>radar</title>
<desc>Created using Figma</desc>
<g id="Canvas" transform="translate(0 -6)">
<g id="radar">
<g id="Group">
<g id="Vector">
<use xlink:href="#path0_fill" transform="translate(64.3448 59.406)"/>
</g>
<g id="Vector">
<use xlink:href="#path1_fill" transform="translate(42.1656 77.8123)"/>
</g>
<g id="Vector">
<use xlink:href="#path2_fill" transform="translate(19 92.9985)"/>
</g>
<g id="Ellipse">
<use xlink:href="#path3_fill" transform="translate(0 109.406)"/>
</g>
<g id="Vector">
<use xlink:href="#path4_fill" transform="translate(112.305 43.406)"/>
</g>
</g>
<g id="Vector">
<use xlink:href="#path5_fill" transform="matrix(1 0 0 -1 125 32)"/>
</g>
</g>
</g>
<defs>
<path id="path0_fill" d="M 2.66071 1.8003C -0.211293 4.3893 -0.441293 8.8153 2.14771 11.6863C 12.4847 23.1533 19.1637 41.4153 19.1637 58.2133C 19.1637 75.1663 12.3597 93.5693 1.83071 105.098C -0.775295 107.952 -0.575293 112.38 2.27871 114.988C 3.62171 116.215 5.3117 116.819 6.9977 116.819C 8.8957 116.819 10.7877 116.051 12.1687 114.54C 24.9227 100.576 33.1637 78.4673 33.1637 58.2143C 33.1637 38.1493 25.0707 16.2063 12.5467 2.3143C 9.9587 -0.559705 5.53171 -0.786704 2.66071 1.8003Z"/>
<path id="path1_fill" d="M 12.418 2.31495C 9.83095 -0.557054 5.40395 -0.789054 2.53195 1.79995C -0.340046 4.38795 -0.571048 8.81395 2.01695 11.6859C 7.67095 17.9599 11.774 29.8199 11.774 39.8839C 11.774 50.0329 7.59295 61.977 1.83195 68.283C -0.776047 71.137 -0.575047 75.5639 2.27895 78.1719C 3.62195 79.3989 5.31295 80.0039 6.99795 80.0039C 8.89595 80.0039 10.787 79.236 12.168 77.725C 20.306 68.817 25.773 53.6099 25.773 39.8839C 25.774 28.5619 21.645 12.5549 12.418 2.31495Z"/>
<path id="path2_fill" d="M 2.43651 1.79675C -0.437487 4.38375 -0.669487 8.80975 1.91651 11.6828C 4.44751 14.4948 6.35551 20.1138 6.35551 24.7528C 6.35551 29.4328 4.41151 35.0898 1.83251 37.9118C -0.775487 40.7658 -0.575487 45.1928 2.27751 47.8018C 3.62051 49.0288 5.31151 49.6338 6.99751 49.6338C 8.89551 49.6338 10.7865 48.8668 12.1675 47.3558C 17.8235 41.1668 20.3555 31.5428 20.3555 24.7538C 20.3555 18.0278 17.8715 8.48276 12.3215 2.31776C 9.73651 -0.556244 5.31151 -0.789248 2.43651 1.79675Z"/>
<path id="path3_fill" d="M 16 8C 16 12.4183 12.4183 16 8 16C 3.58172 16 0 12.4183 0 8C 0 3.58172 3.58172 0 8 0C 12.4183 0 16 3.58172 16 8Z"/>
<path id="path4_fill" d="M 189.643 34.734C 188.791 34.734 187.917 34.856 187.044 35.096L 179.168 39.817L 166.912 12.835C 164.008 5.758 155.419 0 147.768 0L 51.793 0C 44.143 0 35.554 5.758 32.65 12.835L 20.408 39.783L 12.654 35.095C 11.782 34.856 10.908 34.734 10.056 34.734C 5.388 34.734 0 38.299 0 43.213L 0 49.034C 0 54.768 6.666 59.434 12.4 59.434L 13.518 59.434L 11.862 63.467C 9.163 70.042 6.966 81.175 6.966 88.282L 6.966 137.908C 6.966 143.642 11.632 148.308 17.366 148.308L 30.95 148.308C 36.684 148.308 41.35 143.642 41.35 137.908L 41.35 125.514L 158.209 125.514L 158.209 137.908C 158.209 143.642 162.875 148.308 168.609 148.308L 182.191 148.308C 187.925 148.308 192.591 143.642 192.591 137.908L 192.591 88.283C 192.591 81.176 190.395 70.043 187.695 63.468L 186.039 59.435L 187.294 59.435C 193.028 59.435 199.694 54.769 199.694 49.035L 199.694 43.214C 199.699 38.299 194.311 34.734 189.643 34.734ZM 29.867 53.786L 43.379 18.999C 45.117 14.767 52.283 11.303 56.859 11.303L 142.707 11.303C 147.283 11.303 153.449 14.767 155.187 18.999L 169.699 53.786C 171.437 58.019 169.115 61.483 164.539 61.483L 35.027 61.483C 30.451 61.483 28.129 58.019 29.867 53.786ZM 60.496 101.58C 60.496 103.868 58.624 105.74 56.336 105.74L 37.867 105.74C 35.579 105.74 33.707 103.868 33.707 101.58L 33.707 87.438C 33.707 85.15 35.579 83.278 37.867 83.278L 56.336 83.278C 58.624 83.278 60.496 85.15 60.496 87.438L 60.496 101.58ZM 164.578 101.58C 164.578 103.868 162.706 105.74 160.418 105.74L 141.951 105.74C 139.663 105.74 137.791 103.868 137.791 101.58L 137.791 87.438C 137.791 85.15 139.663 83.278 141.951 83.278L 160.418 83.278C 162.706 83.278 164.578 85.15 164.578 87.438L 164.578 101.58Z"/>
<path id="path5_fill" d="M 52.4998 4.16081C 50.2229 5.18232 47.8382 6.05766 45.3682 6.76472C 44.7436 6.94234 44.1062 7.11486 43.4679 7.27123C 41.1028 7.85677 38.6632 8.29359 36.1677 8.56299C 35.2028 8.66752 34.2242 8.7525 33.2417 8.80349C 32.4739 8.84683 31.7042 8.87658 30.9247 8.89018C 30.6177 8.89697 30.3079 8.89697 30 8.89697C 30 8.89697 30 8.89697 29.9961 8.89697C 29.6882 8.89697 29.3773 8.89697 29.0714 8.89018C 28.2919 8.87658 27.5221 8.84683 26.7544 8.80349C 25.7719 8.75165 24.7933 8.66752 23.8304 8.56299C 21.3329 8.29444 18.8952 7.85762 16.5302 7.27123C 15.8908 7.11486 15.2545 6.94234 14.6289 6.76472C 12.1579 6.05766 9.77611 5.18232 7.4973 4.16081C 6.68737 3.79708 5.88822 3.41296 5.10574 3.00928C 3.32799 2.1008 1.6238 1.09459 9.27647e-07 -7.52117e-07L 2.24056 1.94273L 6.15885 5.33869L 9.88005 8.56299L 13.5375 11.7363L 17.4597 15.134L 23.1097 20.0316L 29.998 26L 29.998 25.9711L 30.002 26L 36.8903 20.0316L 42.5403 15.134L 46.4605 11.7363L 50.118 8.56299L 53.8412 5.33869L 57.7594 1.94273L 60 -7.52117e-07C 58.3762 1.09459 56.671 2.1008 54.8943 3.00928C 54.1088 3.41296 53.3117 3.79708 52.4998 4.16081Z"/>
</defs>
</svg>
